<svg width="13" height="16" viewBox="0 0 13 16" fill="none" xmlns="http://www.w3.org/2000/svg">
<g id="pinterest-p-brands 1" clip-path="url(#clip0_4_33)">
<path id="Vector" d="M7.26571 0.203125C4.08103 0.203125 0.933594 2.34063 0.933594 5.8C0.933594 8 2.16277 9.25 2.90772 9.25C3.21502 9.25 3.39195 8.3875 3.39195 8.14375C3.39195 7.85313 2.6563 7.23438 2.6563 6.025C2.6563 3.5125 4.55594 1.73125 7.01429 1.73125C9.1281 1.73125 10.6925 2.94062 10.6925 5.1625C10.6925 6.82187 10.0314 9.93437 7.88961 9.93437C7.11672 9.93437 6.45557 9.37187 6.45557 8.56563C6.45557 7.38438 7.27502 6.24062 7.27502 5.02187C7.27502 2.95312 4.36039 3.32812 4.36039 5.82812C4.36039 6.35313 4.42557 6.93437 4.65837 7.4125C4.23002 9.26875 3.3547 12.0344 3.3547 13.9469C3.3547 14.5375 3.43851 15.1188 3.49438 15.7094C3.59991 15.8281 3.54714 15.8156 3.70855 15.7563C5.27296 13.6 5.21709 13.1781 5.92479 10.3562C6.30658 11.0875 7.29365 11.4812 8.07585 11.4812C11.3723 11.4812 12.8529 8.24688 12.8529 5.33125C12.8529 2.22813 10.1897 0.203125 7.26571 0.203125Z" fill="black"/>
</g>
<defs>
<clipPath id="clip0_4_33">
<rect width="11.9193" height="16" fill="white" transform="translate(0.933594)"/>
</clipPath>
</defs>
</svg>
