<svg width="17" height="16" viewBox="0 0 17 16" fill="none" xmlns="http://www.w3.org/2000/svg">
<g id="twitter-brands 1" clip-path="url(#clip0_4_29)">
<path id="Vector" d="M14.9423 4.74052C14.9524 4.88264 14.9524 5.0248 14.9524 5.16692C14.9524 9.50192 11.6752 14.4969 5.68525 14.4969C3.83987 14.4969 2.12561 13.9588 0.683594 13.0248C0.945787 13.0552 1.19786 13.0654 1.47014 13.0654C2.9928 13.0654 4.39449 12.5476 5.51382 11.6644C4.08189 11.6339 2.88189 10.6898 2.46844 9.39027C2.67014 9.4207 2.87181 9.44102 3.08359 9.44102C3.37602 9.44102 3.66847 9.40039 3.94072 9.32936C2.4483 9.02477 1.32894 7.70498 1.32894 6.11108V6.07048C1.76254 6.31414 2.26678 6.46642 2.80119 6.4867C1.92388 5.89786 1.34912 4.8928 1.34912 3.75573C1.34912 3.14661 1.51043 2.58823 1.7928 2.10092C3.39616 4.09077 5.80625 5.39023 8.50873 5.53239C8.45832 5.28873 8.42805 5.03495 8.42805 4.78114C8.42805 2.97402 9.88016 1.50195 11.6852 1.50195C12.623 1.50195 13.47 1.89789 14.065 2.53748C14.8011 2.39536 15.507 2.12123 16.1322 1.74561C15.8902 2.50705 15.3759 3.14664 14.7003 3.5527C15.3558 3.48167 15.9911 3.29889 16.5759 3.04511C16.1323 3.69483 15.5776 4.27348 14.9423 4.74052Z" fill="black"/>
</g>
<defs>
<clipPath id="clip0_4_29">
<rect width="15.8924" height="16" fill="white" transform="translate(0.683594)"/>
</clipPath>
</defs>
</svg>
